<?xml version="1.0"?>
<svg xmlns:rdf="http://www.w3.org/1999/02/22-rdf-syntax-ns#" xmlns="http://www.w3.org/2000/svg" xmlns:cc="http://web.resource.org/cc/" xmlns:xlink="http://www.w3.org/1999/xlink" xmlns:dc="http://purl.org/dc/elements/1.1/" xmlns:svg="http://www.w3.org/2000/svg" id="Layer_1" y="0px" xml:space="preserve" viewBox="0 0 487.932 490.305" version="1.1" enable-background="new 0 0 487.932 490.305" x="0px">
	<path stroke-linejoin="round" d="m312.36 227.32c6.822 25.457 0.109 50.505-18.525 69.141-18.637 18.636-43.684 25.347-69.141 18.525-25.457-6.82-43.793-25.157-50.614-50.614s-0.109-50.504 18.526-69.14c18.636-18.636 43.684-25.347 69.141-18.526 25.44 6.82 43.78 25.16 50.6 50.62" stroke="#000" stroke-miterlimit="10" stroke-width=".5892" fill="none"/>
	<path fill="#FFFCFC" clip-rule="evenodd" d="m218.92 231.81l-193.89-111.94 193.89 111.94zm38.33-10.27l111.95-193.89-111.95 193.89zm10.27 38.33l193.9 111.94-193.9-111.94zm-38.33 10.27l-111.94 193.9 111.94-193.9z" fill-rule="evenodd"/>
		<path stroke-linejoin="round" d="m218.92 231.81l-193.89-111.94 193.89 111.94zm38.33-10.27l111.95-193.89-111.95 193.89zm10.27 38.33l193.9 111.94-193.9-111.94zm-38.33 10.27l-111.94 193.9 111.94-193.9z" stroke-dashoffset="19" stroke="#000" stroke-dasharray="1.9826,23.7911" stroke-miterlimit="10" stroke-width="1.9826" fill="none"/>
		<path stroke-linejoin="round" d="m379.78 209.25c20.199 75.379-24.586 152.95-99.965 173.15-75.38 20.197-152.95-24.588-173.15-99.967-20.198-75.379 24.587-152.95 99.967-173.15 75.37-20.192 152.94 24.59 173.14 99.97z" stroke="#000" stroke-dasharray="7.0504,7.0504" stroke-miterlimit="10" stroke-width="3.5252" fill="none"/>
	<path clip-rule="evenodd" d="m381.57 215.93c-3.76 1.007-7.627-1.226-8.635-4.985s1.227-7.627 4.984-8.635c3.76-1.007 7.629 1.226 8.637 4.985 1 3.77-1.23 7.64-4.99 8.65z" fill-rule="evenodd"/>
	<path stroke="#000" stroke-width="1.7626" stroke-miterlimit="10" d="m381.57 215.93c-3.76 1.007-7.627-1.226-8.635-4.985s1.227-7.627 4.984-8.635c3.76-1.007 7.629 1.226 8.637 4.985 1 3.77-1.23 7.64-4.99 8.65z" fill="none"/>
	<path clip-rule="evenodd" d="m273.14 384.19c-1.008-3.76 1.225-7.628 4.984-8.635 3.76-1.008 7.627 1.226 8.635 4.985s-1.227 7.627-4.984 8.635c-3.77 1-7.64-1.23-8.64-4.99z" fill-rule="evenodd"/>
	<path stroke="#000" stroke-width="1.7626" stroke-miterlimit="10" d="m273.14 384.19c-1.008-3.76 1.225-7.628 4.984-8.635 3.76-1.008 7.627 1.226 8.635 4.985s-1.227 7.627-4.984 8.635c-3.77 1-7.64-1.23-8.64-4.99z" fill="none"/>
	<path clip-rule="evenodd" d="m104.88 275.76c3.759-1.008 7.628 1.226 8.635 4.985s-1.226 7.628-4.985 8.635-7.627-1.227-8.635-4.985 1.215-7.63 4.975-8.64z" fill-rule="evenodd"/>
	<path stroke="#000" stroke-width="1.7626" stroke-miterlimit="10" d="m104.88 275.76c3.759-1.008 7.628 1.226 8.635 4.985s-1.226 7.628-4.985 8.635-7.627-1.227-8.635-4.985 1.215-7.63 4.975-8.64z" fill="none"/>
	<path clip-rule="evenodd" d="m213.3 107.5c1.007 3.759-1.226 7.628-4.985 8.635s-7.628-1.226-8.635-4.985c-1.007-3.759 1.226-7.628 4.985-8.635 3.77-1.02 7.64 1.22 8.64 4.98z" fill-rule="evenodd"/>
	<path stroke="#000" stroke-width="1.7626" stroke-miterlimit="10" d="m213.3 107.5c1.007 3.759-1.226 7.628-4.985 8.635s-7.628-1.226-8.635-4.985c-1.007-3.759 1.226-7.628 4.985-8.635 3.77-1.02 7.64 1.22 8.64 4.98z" fill="none"/>
	<path stroke-linejoin="round" d="m365.77 213.01c18.125 67.645-22.064 137.26-89.711 155.38-67.644 18.126-137.26-22.064-155.38-89.709-18.125-67.646 22.064-137.26 89.709-155.38 67.64-18.13 137.25 22.06 155.38 89.71z" stroke="#000" stroke-miterlimit="10" stroke-width="3.1636" fill="none"/>
	<polygon fill="#6E6E6E" points="355.6 215.73 260.27 255.69 273.33 358.22 233.38 262.89 130.84 275.95 226.17 236 213.11 133.46 253.07 228.79" clip-rule="evenodd" fill-rule="evenodd"/>
	<polygon points="399.15 335.87 250.56 273.23 153.2 401.77 215.83 253.18 87.296 155.82 235.88 218.45 333.25 89.917 270.61 238.5" clip-rule="evenodd" fill-rule="evenodd"/>
	<polygon stroke-linejoin="round" stroke="#000" points="399.15 335.87 250.56 273.23 153.2 401.77 215.83 253.18 87.296 155.82 235.88 218.45 333.25 89.917 270.61 238.5" stroke-miterlimit="10" stroke-width="2.0905" fill="none"/>
	<path stroke-linejoin="round" d="m239.68 163.81c0.413-1.651 7.447-1.369 7.074 0.124-1.711 12.55-0.924 16.492-0.924 16.492l-5.504-0.111c0.24 1.23 0.99-8.5-0.65-16.5m41.49 9.22c1.184-1.224 7.135 2.538 6.064 3.644-7.758 10.013-9.047 13.82-9.047 13.82l-4.711-2.848c-0.39 1.19 5.12-6.87 7.7-14.61m31.32 28.73c1.637-0.468 4.91 5.765 3.43 6.188-11.725 4.793-14.744 7.445-14.744 7.445l-2.656-4.822c-0.93 0.82 7.87-3.4 13.97-8.82m12.76 40.54c1.652 0.413 1.369 7.447-0.123 7.074-12.551-1.711-16.492-0.924-16.492-0.924l0.111-5.504c-1.23 0.25 8.51 0.99 16.5-0.65m-9.21 41.49c1.223 1.183-2.539 7.134-3.645 6.063-10.014-7.757-13.82-9.046-13.82-9.046l2.848-4.711c-1.2-0.39 6.86 5.12 14.61 7.7m-28.73 31.32c0.469 1.637-5.766 4.909-6.188 3.43-4.793-11.725-7.445-14.744-7.445-14.744l4.82-2.656c-0.83-0.93 3.39 7.87 8.81 13.97m-40.54 12.76c-0.412 1.651-7.447 1.368-7.074-0.125 1.711-12.55 0.924-16.491 0.924-16.491l5.505 0.111c-0.25-1.21-1 8.52 0.65 16.51m-41.49-9.21c-1.183 1.225-7.134-2.538-6.064-3.645 7.757-10.013 9.046-13.819 9.046-13.819l4.711 2.848c0.38-1.19-5.13 6.86-7.7 14.61m-31.33-28.73c-1.637 0.468-4.909-5.766-3.43-6.188 11.724-4.793 14.744-7.445 14.744-7.445l2.656 4.822c0.94-0.83-7.86 3.39-13.97 8.81m-12.76-40.54c-1.652-0.413-1.369-7.447 0.124-7.074 12.55 1.711 16.491 0.924 16.491 0.924l-0.111 5.504c1.23-0.25-8.5-0.99-16.5 0.65m9.22-41.49c-1.224-1.184 2.538-7.134 3.645-6.064 10.013 7.757 13.82 9.046 13.82 9.046l-2.848 4.711c1.18 0.38-6.88-5.13-14.62-7.7m28.73-31.33c-0.468-1.637 5.765-4.909 6.188-3.43 4.793 11.725 7.445 14.744 7.445 14.744l-4.822 2.656c0.82 0.94-3.4-7.86-8.82-13.97" stroke="#000" stroke-miterlimit="10" stroke-width="1.8528" fill="none"/>
	<polygon fill="#fff" points="255.79 249.38 271.12 245.74 375.81 318.68" clip-rule="evenodd" fill-rule="evenodd"/>
	<polygon fill="#fff" points="240.86 257.23 244.19 273 171.56 377.26" clip-rule="evenodd" fill-rule="evenodd"/>
	<polygon fill="#fff" points="230.65 242.3 214.84 245.61 110.63 173.01" clip-rule="evenodd" fill-rule="evenodd"/>
	<polygon fill="#fff" points="246.76 233.27 244.02 216.66 316.06 113.25" clip-rule="evenodd" fill-rule="evenodd"/>
	<path fill="#FFFCFC" clip-rule="evenodd" d="m263.55 240.4c3.006 11.22-3.66 22.765-14.879 25.771-11.22 3.006-22.765-3.66-25.771-14.879-3.006-11.22 3.66-22.766 14.879-25.771 11.22-3.01 22.76 3.66 25.77 14.88z" fill-rule="evenodd"/>
	<path stroke-linejoin="round" d="m263.55 240.4c3.006 11.22-3.66 22.765-14.879 25.771-11.22 3.006-22.765-3.66-25.771-14.879-3.006-11.22 3.66-22.766 14.879-25.771 11.22-3.01 22.76 3.66 25.77 14.88z" stroke="#000" stroke-miterlimit="10" stroke-width="2.9459" fill="none"/>
	<path d="m370.09 0l7.66 4.422 5.328 21.391 4.746-8.22c0.578-1.001 0.914-1.976 1.006-2.924s-0.072-1.804-0.492-2.569c-0.221-0.418-0.479-0.774-0.777-1.067-0.297-0.293-0.746-0.644-1.35-1.052l0.293-0.505 9.449 5.456-0.293 0.505-0.191-0.11c-1.373-0.794-2.674-0.961-3.896-0.502-1.225 0.458-2.316 1.521-3.277 3.187l-7.877 13.641-0.449-0.26-6.701-26.425-6.543 11.333c-0.635 1.102-1.012 2.059-1.129 2.871s0.012 1.576 0.389 2.291c0.314 0.57 0.793 1.096 1.438 1.577 0.346 0.284 0.865 0.645 1.561 1.083l-0.293 0.505-9.953-5.747 0.291-0.505c1.051 0.534 1.986 0.833 2.805 0.899 0.816 0.065 1.553-0.114 2.203-0.539 0.652-0.425 1.236-1.083 1.75-1.975l6.229-10.787c0.385-0.665 0.563-1.314 0.533-1.949-0.027-0.635-0.25-1.241-0.67-1.817s-1.031-1.096-1.832-1.558l-0.246-0.142 0.29-0.508z"/>
	<path d="m123.13 472.87l0.478 0.275-3.776 6.541-0.478-0.276c0.336-1.905 0.395-3.511 0.176-4.813-0.171-0.924-0.519-1.851-1.045-2.779s-1.205-1.813-2.038-2.651-1.754-1.55-2.765-2.133c-0.755-0.437-1.49-0.721-2.202-0.853-0.712-0.133-1.392-0.112-2.038 0.062-0.459 0.123-0.881 0.316-1.264 0.581-0.383 0.264-0.672 0.564-0.866 0.901-0.368 0.637-0.44 1.33-0.217 2.078 0.096 0.358 0.296 0.765 0.598 1.219s0.73 0.974 1.284 1.561 1.347 1.372 2.38 2.357c0.27 0.289 0.458 0.478 0.566 0.563l0.575 0.551 0.907 0.888c1.534 1.505 2.613 2.674 3.237 3.507 0.623 0.833 1.058 1.71 1.304 2.629 0.208 0.69 0.272 1.395 0.191 2.112-0.081 0.719-0.313 1.409-0.697 2.074-0.378 0.655-0.899 1.231-1.563 1.729s-1.399 0.846-2.207 1.047c-1.073 0.304-2.204 0.343-3.391 0.118-1.188-0.225-2.414-0.701-3.679-1.433-0.883-0.51-1.663-1.078-2.338-1.704-0.676-0.627-1.437-1.501-2.283-2.62-0.56-0.712-1.001-1.23-1.323-1.556s-0.651-0.586-0.988-0.78c-0.646-0.373-1.293-0.52-1.941-0.438-0.648 0.081-1.226 0.394-1.734 0.938l-0.478-0.276 5.093-8.82 0.478 0.275c-0.713 1.677-0.9 3.462-0.562 5.356 0.215 1.12 0.641 2.291 1.276 3.513 0.635 1.223 1.401 2.33 2.298 3.32 0.896 0.991 1.841 1.773 2.833 2.346 0.883 0.51 1.775 0.831 2.676 0.963s1.706 0.057 2.415-0.226c0.709-0.283 1.253-0.752 1.632-1.407 0.399-0.691 0.481-1.476 0.247-2.352-0.113-0.393-0.312-0.811-0.596-1.254-0.285-0.443-0.685-0.96-1.2-1.549s-1.247-1.356-2.192-2.304l-1.153-1.157c-1.799-1.803-3.016-3.101-3.651-3.892-0.725-0.868-1.252-1.621-1.581-2.261-0.329-0.639-0.535-1.328-0.618-2.067-0.144-1.055 0.037-2.019 0.541-2.893 0.61-1.056 1.472-1.823 2.586-2.303s2.373-0.63 3.774-0.451c1.402 0.178 2.791 0.664 4.165 1.458 2.075 1.198 3.895 3.019 5.458 5.463 0.557 0.843 0.976 1.347 1.258 1.51 0.68 0.41 1.49 0.18 2.41-0.69z"/>
	<path d="m1.44 91.657l9.927 5.731-0.264 0.521c-0.815-0.459-1.473-0.692-1.971-0.701s-0.877 0.21-1.134 0.656c-0.252 0.437-0.436 0.944-0.55 1.521l-2.413 13.481 9.481-7.435c0.217-1.112 0.332-1.957 0.343-2.533s-0.067-1.149-0.236-1.72c-0.128-0.535-0.328-0.972-0.6-1.311-0.271-0.339-0.658-0.653-1.158-0.942l0.292-0.505 10.35 5.976-0.292 0.505-0.505-0.292c-0.819-0.473-1.537-0.702-2.152-0.687-0.616 0.015-1.076 0.286-1.38 0.814-0.205 0.355-0.336 0.729-0.392 1.121l-2.362 13.583 9.956-7.942c0.521-0.44 0.91-0.883 1.168-1.329 0.394-0.683 0.422-1.346 0.084-1.991-0.338-0.644-1.055-1.3-2.149-1.969l0.265-0.521 7.66 4.422-0.292 0.505c-0.531-0.258-0.989-0.416-1.374-0.475s-0.846-0.054-1.382 0.012c-1.111 0.16-2.322 0.753-3.632 1.781l-14.792 11.778-0.505-0.292 2.991-17.226-13.889 10.94-0.533-0.31 3.203-18.287c0.311-1.653 0.342-2.958 0.094-3.915-0.249-0.957-0.806-1.685-1.67-2.184l-0.478-0.276 0.291-0.501z"/>
	<path d="m467.64 361.34l20.289 11.715-4.264 7.387-0.41-0.236c0.373-1.508 0.598-2.668 0.672-3.48s0.041-1.643-0.102-2.489c-0.18-1.014-0.521-1.861-1.027-2.541-0.852-1.111-2.078-2.129-3.68-3.054l-3.756-2.168-5.234 9.066 1.01 0.584c1.502 0.867 3.068 0.909 4.697 0.126 0.838-0.401 1.633-0.999 2.383-1.792 0.334-0.329 0.768-0.849 1.301-1.562l0.479 0.276-7.221 12.508-0.479-0.276c0.279-0.736 0.516-1.446 0.711-2.129 0.193-0.684 0.305-1.266 0.334-1.746 0.029-0.481 0.006-0.992-0.07-1.534-0.236-1.483-1.109-2.661-2.621-3.533l-0.791-0.457-4.928 8.534 3.141 1.813c0.928 0.536 1.801 0.952 2.619 1.249 0.818 0.296 1.604 0.477 2.355 0.54 0.752 0.064 1.516 0.022 2.293-0.124 1.328-0.24 2.564-0.783 3.707-1.628 0.656-0.483 1.455-1.187 2.4-2.109l0.506 0.292-4.533 7.852-20.768-11.991 0.264-0.521 0.52 0.3c2.313 1.335 4.141 0.837 5.486-1.493l6.408-11.102c0.684-1.184 0.906-2.22 0.668-3.11s-0.949-1.677-2.133-2.36l-0.52-0.3 0.29-0.52z"/>
	<path d="m374.42 4.676c2.055 8.117 4.107 16.233 6.162 24.349 2.99-3.565-0.623-8.059-0.924-12.084-1.279-3.911-1.541-8.587-3.438-12.033-0.62-0.025-2.91-2.468-1.8-0.232zm15.5 8.395c-0.107 1.432 0.42 1.075 1.434 0.573-0.19 0.115-1.86-1.476-1.43-0.573zm-25.62 6.877c-2 0.267 1.02 1.494 0 0z" fill="#FFF6F6"/>
	<path d="m121.1 474.92c-0.87-0.38-0.04 1.74 0 0zm-14.58-8.26c-3.393 1.279-2.889 5.736-0.496 7.708 2.803 3.952 8.057 6.543 9.168 11.48 0.428 0.987-1.419 3.452 0.174 2.056 3.268-2.511 0.856-7.096-1.757-9.072-2.586-3.317-7.692-5.627-7.796-10.284-0.02-0.64 0.74-1.78 0.72-1.9zm-8.569 13.78c0.963-0.138 2.396 0.982 1.495-0.711-0.277-2.76-0.478-0.58-1.495 0.71z" fill="#FFF6F6"/>
	<path d="m4.592 95.198c-0.18 6.589-2.229 13.098-3.061 19.663 4.037-2.213 2.666-7.653 4.008-11.473 0.661-2.228 0.267-5.071 2.047-6.822-0.707-0.158-3.052-2.259-2.994-1.37zm11.3 6.202c0.346 5.647-1.887 11.807-2.536 17.758-0.562 5.151 3.552-2.688 2.817-5.145 1.23-3.444 0.125-8.107 2.878-10.832-1.017-0.57-2.245-1.35-3.159-1.79zm13.145 7.76c0.299 0.39 0.223-0.63 0 0z" fill="#FFF6F6"/>
	<path d="m471.28 364.92c-0.418 4.705-4.443 8.243-6.227 12.478-0.967 1.646-1.822 3.634-3.688 4.398 3.736 3.987 4.639-2.608 6.668-4.995 2-3.465 4.002-6.931 6.002-10.396-0.82-0.41-2.13-1.37-2.75-1.48zm13.39 7.85c0.563 0.753 0.117 4.121 1.061 1.738 1.76-1.01-1.27-2.21-1.06-1.74zm-8.66 4.7c-1.117 0.507-2.746 0.205-1.703 1.737-0.03 3.16 1.61-1.91 1.7-1.74zm2.3 10.77c-1.201 0.648-2.531 0.954-3.869 1.104 2.62 2.34 3.29 0.71 3.87-1.1z" fill="#FFF6F6"/>
	<path fill="#888" clip-rule="evenodd" d="m228.65 238.81c-2.859 11.584 3.745 20.13 19.799 24.446 0.158 0.198-11.731 1.009-17.577-4.849-6.97-6.99-3.97-20.27-2.22-19.6z" fill-rule="evenodd"/>
	<path fill="#888" clip-rule="evenodd" d="m255.98 258.4c7.461-10.233 3.227-26.195-8.465-31.199-0.057-0.247 7.238 2.292 11.855 9.161 6.64 9.9-1.31 23.55-3.4 22.04z" fill-rule="evenodd"/>
<metadata><rdf:RDF><cc:Work><dc:format>image/svg+xml</dc:format><dc:type rdf:resource="http://purl.org/dc/dcmitype/StillImage"/><cc:license rdf:resource="http://creativecommons.org/licenses/publicdomain/"/><dc:publisher><cc:Agent rdf:about="http://openclipart.org/"><dc:title>Openclipart</dc:title></cc:Agent></dc:publisher><dc:title>Compass</dc:title><dc:date>2008-04-10T08:21:01</dc:date><dc:description>A black and white 3d compass&#xD;\n&#xD;\nhttp://diwan-e-ayyari.blogspot.com</dc:description><dc:source>http://openclipart.org/detail/16283/compass-by-ipurush</dc:source><dc:creator><cc:Agent><dc:title>ipurush</dc:title></cc:Agent></dc:creator><dc:subject><rdf:Bag><rdf:li>cartoon</rdf:li><rdf:li>clip art</rdf:li><rdf:li>clipart</rdf:li><rdf:li>compass</rdf:li><rdf:li>how i did it</rdf:li><rdf:li>icon</rdf:li><rdf:li>image</rdf:li><rdf:li>line art</rdf:li><rdf:li>map</rdf:li><rdf:li>media</rdf:li><rdf:li>png</rdf:li><rdf:li>public domain</rdf:li><rdf:li>sign</rdf:li><rdf:li>svg</rdf:li></rdf:Bag></dc:subject></cc:Work><cc:License rdf:about="http://creativecommons.org/licenses/publicdomain/"><cc:permits rdf:resource="http://creativecommons.org/ns#Reproduction"/><cc:permits rdf:resource="http://creativecommons.org/ns#Distribution"/><cc:permits rdf:resource="http://creativecommons.org/ns#DerivativeWorks"/></cc:License></rdf:RDF></metadata></svg>
